<svg xmlns="http://www.w3.org/2000/svg" version="1.1" viewBox="-5.0 -10.0 110.0 135.0">
 <path d="m77.07 36.109c-0.12109 6.9062-5.7539 12.441-12.664 12.441s-12.543-5.5352-12.668-12.441c0-0.42578 0.023438-0.85156 0.066407-1.2773 0.28906-2.957 1.6211-5.7148 3.75-7.7852 3.6484-3.5508 9.0703-4.5781 13.762-2.5977 4.6953 1.9766 7.7461 6.5742 7.7461 11.668zm-29.871 44.289c-2.9375 0-5.4062-2.2188-5.7148-5.1406h11.43-0.003906c-0.30859 2.9219-2.7695 5.1406-5.7109 5.1406zm24.254-6.4414v0.003907c0.011719 0.019531 0.011719 0.042968 0 0.0625-0.007813 0.019531-0.03125 0.035156-0.054687 0.03125h-48.398c-0.023438 0.003906-0.046875-0.007813-0.054688-0.03125-0.015624-0.015626-0.015624-0.042969 0-0.058594 3.3203-4.3281 5.125-9.625 5.1328-15.082v-14.223c0.019531-4.3516 1.5117-8.5625 4.2383-11.953 2.7227-3.3906 6.5195-5.7539 10.762-6.707l0.47266-0.10547v-2.6641c0-2.0117 1.6328-3.6406 3.6445-3.6406 2.0117 0 3.6445 1.6289 3.6445 3.6406v2.6602l0.47266 0.10938c0.95312 0.20703 1.8867 0.48828 2.8008 0.83594l-0.1875 0.21875-0.1875 0.21484-0.25391 0.31641c-0.050781 0.066406-0.10938 0.13672-0.16016 0.20703-0.050781 0.070312-0.18359 0.25391-0.27734 0.39844-0.035156 0.050782-0.074219 0.10547-0.11328 0.16016-0.125 0.17969-0.24219 0.36328-0.35547 0.54688l-0.10156 0.17578c-0.078124 0.13281-0.15625 0.26562-0.23047 0.39844l-0.12109 0.23047c-0.0625 0.11719-0.125 0.23438-0.18359 0.35156-0.058594 0.11719-0.074218 0.17187-0.11719 0.25781l-0.15625 0.34375-0.10938 0.26953c-0.046875 0.11328-0.09375 0.22656-0.13672 0.34375-0.042969 0.11719-0.066406 0.18359-0.10156 0.27734-0.03125 0.09375-0.078124 0.23047-0.11719 0.34766-0.035156 0.11719-0.058594 0.1875-0.085937 0.28125-0.023438 0.09375-0.066407 0.23438-0.10156 0.35547-0.03125 0.12109-0.050781 0.1875-0.074219 0.28516-0.023437 0.097656-0.054687 0.24219-0.078125 0.36328l-0.058593 0.28516c-0.023438 0.125-0.042969 0.25391-0.066407 0.375-0.023437 0.125-0.027343 0.18359-0.042969 0.28125-0.015624 0.097656-0.03125 0.26562-0.046874 0.39844-0.015626 0.13672-0.023438 0.17578-0.03125 0.26172 0 0.15234-0.023438 0.30078-0.03125 0.44922v0.22266 0.67578l0.003906 0.003906c0.019531 7.6211 6.1875 13.801 13.809 13.84 0.28516 0 0.57031 0 0.85156-0.027344h0.22656c0.24219 0 0.48438-0.042968 0.72266-0.074218h0.10156v9.0469l0.003907-0.003907c0.015624 5.4492 1.8242 10.738 5.1445 15.055z"/>
<text x="0.0" y="117.5" font-size="5.0" font-weight="bold" font-family="Arbeit Regular, Helvetica, Arial-Unicode, Arial, Sans-serif" fill="#000000">Created by Mustofa Bayu</text><text x="0.0" y="122.5" font-size="5.0" font-weight="bold" font-family="Arbeit Regular, Helvetica, Arial-Unicode, Arial, Sans-serif" fill="#000000">from Noun Project</text></svg>