<svg xmlns="http://www.w3.org/2000/svg" version="1.1" viewBox="-5.0 -10.0 110.0 135.0">
 <path d="m50 80.398c-2.9375 0-5.4023-2.2188-5.7109-5.1406h11.426-0.003906c-0.30859 2.9219-2.7734 5.1406-5.7109 5.1406zm24.262-6.375c-0.011719 0.023437-0.035157 0.035156-0.058594 0.03125h-48.398c-0.023438 0.003906-0.042969-0.011719-0.050782-0.03125-0.019531-0.015626-0.019531-0.042969 0-0.058594 3.3203-4.3281 5.125-9.625 5.1328-15.082v-14.223c0.019531-4.3477 1.5117-8.5625 4.2344-11.953 2.7266-3.3906 6.5195-5.7539 10.762-6.707l0.47266-0.10156v-2.668c0-2.0117 1.6328-3.6406 3.6445-3.6406s3.6445 1.6289 3.6445 3.6406v2.6641l0.47266 0.10156c4.2422 0.95312 8.0391 3.3164 10.766 6.707 2.7227 3.3906 4.2188 7.6055 4.2344 11.957v14.23c0.007812 5.4531 1.8125 10.754 5.1367 15.078 0.015625 0.015625 0.015625 0.042969 0.007813 0.0625z"/>
<text x="0.0" y="117.5" font-size="5.0" font-weight="bold" font-family="Arbeit Regular, Helvetica, Arial-Unicode, Arial, Sans-serif" fill="#000000">Created by Mustofa Bayu</text><text x="0.0" y="122.5" font-size="5.0" font-weight="bold" font-family="Arbeit Regular, Helvetica, Arial-Unicode, Arial, Sans-serif" fill="#000000">from Noun Project</text></svg>